<?xml version="1.0" encoding="utf-8"?>
<!-- Generator: Adobe Illustrator 24.1.0, SVG Export Plug-In . SVG Version: 6.00 Build 0)  -->
<svg version="1.1" id="Layer_1" xmlns="http://www.w3.org/2000/svg" xmlns:xlink="http://www.w3.org/1999/xlink" x="0px" y="0px"
     width="96" height="56" viewBox="32 22 110 50" style="enable-background:new 32 22 110 50;" xml:space="preserve">
<style type="text/css">
	.st0{fill:#3AB14A;}
	.st1{fill:#B49F74;}
	.st2{fill:#0063A1;}
	.st3{fill:#143A63;}
	.st4{fill:#094C7F;}
	.st5{fill:#278541;}
	.st6{fill:#897B59;}
	.st7{fill:#221F1F;}
	.st8{fill:#5F5557;}
</style>
<desc>Created with Sketch.</desc>
<g>
	<path class="st0" d="M72.1,35.9c0.1,0,0.1-0.1,0.2-0.1c-0.1-0.5-0.2-1-0.4-1.6c-0.2-1.1-0.3-2.3-0.3-3.3c0-1.2,0.1-2.2,0.5-3
		c0.3-0.8,0.9-1.5,1.6-2c1.5-0.9,3.6-1.2,6.7-1.2c2.7,0,4.8,0.2,6.2,0.7c0.1,0,0.1,0,0.1,0c0.2-0.1,0.5-0.1,0.7-0.2
		c0.4-0.1,0.9-0.2,1.3-0.3c0.4-0.1,0.9-0.1,1.3-0.2c0.5-0.1,0.9-0.1,1.4-0.1c0,0,0,0,0,0c-0.1-0.2-0.2-0.5-0.4-0.7
		c-0.4-0.5-1.4-1.4-3-2c-1.7-0.6-4-1.1-7.1-1.1c-3.5,0-6.1,0.3-7.9,1.1c-1.8,0.8-2.9,2-3.6,3.9c-0.4,1.3-0.6,2.9-0.6,4.8
		c0,0.5,0,1.2,0.1,1.9c0.1,0.5,0.1,1,0.2,1.4l0.1,0.2C69.6,34.7,70.9,35.4,72.1,35.9z"/>
	<path class="st1" d="M86.4,32.2c0,0-0.1,0-0.2,0c0,0-0.1,0-0.2,0c-2.2-0.4-3.9-0.5-5.3-0.2c-0.7,0.1-1.5,0.4-1.5,0.4
		c-0.9,0.5-1.7,1.2-2.2,2.2c-0.3,0.5-0.5,1.2-0.7,1.9c-0.1,0.5-0.3,1.1-0.4,1.7v0.1c-0.3,1.5-0.4,2.7-0.2,3.7c0,0.2,0.1,0.4,0.1,0.6
		c0.1,0.4,0.2,0.7,0.3,1c0.1,0.2,0.2,0.4,0.5,0.7c0.3,0.4,0.7,0.8,1.2,1.2c0.6,0.4,1.4,0.8,2.4,1.1c1.6,0.6,3.3,1,4.6,1.1
		c0,0,0.1,0,0.1-0.1c0.1-0.1,0.2-0.2,0.2-0.3c-0.4-1-1.2-2.3-1.9-3.1l-0.4,0c-0.1,0-0.2,0-0.3,0c-0.6-0.1-1.2-0.3-1.6-0.5
		c-0.7-0.3-1.3-0.6-1.7-1c-0.5-0.5-0.8-1-0.9-1.7c-0.1-0.6-0.1-1.4,0.1-2.3c0-0.2,0.1-0.4,0.1-0.6v0c0-0.1,0-0.1,0-0.2
		c0.2-0.6,0.4-1.1,0.6-1.6c0.4-0.6,1-1,1.7-1.2c0.3-0.1,0.6-0.1,1-0.1c0,0,1.7,0,3.2,0.2c0.2,0,0.5,0.1,0.7,0.1
		c0.2,0,0.5,0.1,0.7,0.1c0.4,0.1,0.7,0.1,1.1,0.2c1.1-0.9,1.4-2.2,1.5-2.7C88.1,32.6,87.3,32.3,86.4,32.2z"/>
	<path class="st0" d="M76.1,36.6l-0.3-0.1c-0.2,0-0.4,0-0.6,0.1c-1.4,0.6-3.1,1.7-4,2.6v0.1c1.1,0.5,2.6,0.9,4.2,1.1
		C75.4,39,75.9,37.1,76.1,36.6z"/>
	<path class="st2" d="M82.3,30.1c-0.1,0.4-0.2,0.9-0.3,1.4c0.6,0,1.2,0,1.7,0.1c0.5,0,1,0.1,1.5,0.2c0,0,0,0,0,0
		c0.4-0.9,1-1.6,1.9-2c0.6-0.3,1.3-0.5,2.2-0.6c1.1-0.2,2.6-0.2,4.3-0.2c1.2,0,2.9,0,4.2,0.4l0.4,0.1c0,0,0.1,0,0.3,0
		c1.1-0.1,4.1-0.9,4.2-2.8c-0.1,0-0.1-0.1-0.1-0.1c-2.3-0.9-6.1-1.6-9.3-1.6c-3.2,0-5.7,0.4-7.5,1.2C84.1,26.9,83,28.1,82.3,30.1z"
		/>
	<path class="st3" d="M87.9,40.5l-0.6-0.2c0,0-2.6,0.8-4.5,0.8c0,0,0.1,0.4,0.4,0.9c0,0,0.1,0,0.3,0c0.5-0.1,1.6-0.3,2.7-0.7
		C86.8,41.1,87.4,40.8,87.9,40.5z"/>
	<path class="st0" d="M88.7,34.1c-0.4,0.9-1,1.6-1.9,2c-0.6,0.3-1.3,0.5-2.2,0.6C83.4,36.9,82,37,80.3,37c-0.4,0-0.9,0-1.3,0
		c-0.6,1.2-0.5,3.1-0.5,3.9c0.7,0.1,1.4,0.1,2.1,0.1c3.2,0,5.7-0.4,7.5-1.2c1.8-0.9,2.9-2.1,3.5-4.1c0.4-1.3,0.6-3,0.6-4.9
		c0-0.3,0-0.6,0-0.8c-0.8,0.1-2.4,0.1-3,0.2c0,0.2,0,0.4,0,0.7C89.2,32.1,89,33.2,88.7,34.1z"/>
	<path class="st4" d="M82.3,36.7c0.1,0,0.2,0,0.2,0c0.2,0,0.5,0,0.7,0c0.5,0,1.1-0.1,1.6-0.2c0-0.3-0.1-0.5-0.1-0.8v0
		c-1.1-0.2-2.5-0.2-3.1-0.1c0,0.4,0,0.7,0.1,1.1C82,36.7,82.1,36.7,82.3,36.7z"/>
	<polygon class="st3" points="81.7,35.6 81.7,35.6 81.7,35.6 	"/>
	<path class="st3" d="M81.7,35.1v0.5c0.6,0,2-0.1,3.1,0.1v-0.4l-0.1,0C83.3,35,81.7,35.1,81.7,35.1z"/>
	<path class="st5" d="M92.2,29.2c-0.1,0-0.1,0-0.2,0c-0.4,0-0.7,0-1.1,0.1c-0.4,0-0.8,0.1-1.1,0.1c-0.2,0-0.4,0-0.6,0.1
		c0,0-0.1,0-0.1,0c0,0.2,0,0.4,0,0.5c0.6,0,2.2-0.1,3.1-0.2C92.2,29.6,92.2,29.4,92.2,29.2z"/>
	<path class="st2" d="M105.3,33.2c-0.1-0.5-0.1-1-0.2-1.4l-0.1-0.2c-0.7-0.6-1.9-1.2-3-1.7c-0.1,0.1-0.2,0.1-0.2,0.2
		c0.1,0.4,0.2,0.9,0.3,1.5c0.2,1.1,0.3,2.3,0.3,3.3c0,1.2-0.1,2.2-0.5,3c-0.3,0.8-0.9,1.5-1.6,2c-1.3,0.9-3.4,1.2-6.1,1.2
		c-0.7,0-2.4-0.1-3.5-0.1c-1.1-0.1-2.1-0.3-2.8-0.5c-0.5,0.3-1.1,0.5-1.8,0.7c-1.1,0.3-2.2,0.6-2.7,0.7c-0.1,0-0.2,0-0.2,0
		c0.4,0.5,1.4,1.3,3,1.9c0.5,0.2,1.1,0.4,1.7,0.5c0,0,3.9,0.6,5.4,0.6c0.1,0-0.1,0,0,0c3.5,0,6.1-0.3,7.9-1.1c1.8-0.8,2.9-2,3.6-3.9
		c0.4-1.3,0.6-2.9,0.6-4.8C105.4,34.6,105.4,33.9,105.3,33.2z"/>
	<path class="st1" d="M93.9,37.7c-0.1-1.2-0.6-2.1-1.2-2.8c0,0-0.3-0.3-0.5-0.4c-0.2,1.1-0.9,2.5-1.2,3c0.2,0.3,0.3,0.6,0.4,1
		c0.1,0.5,0.1,1.1,0,1.7v0.2c0,0.2-0.1,0.3-0.1,0.5l2.3,0.1c0.1-0.4,0.1-0.9,0.2-1.3C93.9,39,94,38.3,93.9,37.7z"/>
	<g>
		<path class="st1" d="M87.8,44.7C87.8,44.7,87.8,44.7,87.8,44.7C87.8,44.7,87.8,44.7,87.8,44.7c-0.2,0-0.4,0.1-0.6,0.1
			c-0.4,0.1-0.8,0.2-1.1,0.2c0,0,0,0-0.1,0c0,0,0,0.1-0.1,0.1c0,0,0,0,0,0c0,0,0,0,0,0c0.6,0.7,1.7,1.7,2.4,2.2
			c0.7-0.1,2.4-0.6,3.5-1.7C90.3,45.7,88.2,44.9,87.8,44.7z"/>
		<path class="st6" d="M92.1,45.5C92.1,45.5,92.1,45.5,92.1,45.5C92.1,45.5,92.1,45.5,92.1,45.5z"/>
	</g>
	<path class="st6" d="M88.2,44.6c-0.1,0-0.3,0.1-0.4,0.1c0.4,0.2,2.5,0.9,4.1,1c0.2-0.2,0.3-0.3,0.5-0.5C91,45.2,89,44.8,88.2,44.6z
		"/>
</g>
<path class="st7" d="M38.1,50.7h9.6v1.7h-9.6V50.7z M41.9,52.9c0.7,0.2,1.5,0.6,2,1v8.7h-2V52.9z"/>
<path class="st7" d="M47.3,57.9c0-1.5,0.5-3.4,1-4.4c0.4,0.5,1,1.4,1.2,2.1c-0.1,0.3-0.2,0.7-0.3,1.2l4.6-0.1c0-0.2,0.1-0.5,0.1-0.8
	c0-1.4-0.7-1.9-2.2-1.9c-0.9,0-1.7,0.2-2.2,0.4c0.2-0.6,0.5-1.3,0.9-1.8c0.4-0.1,1-0.2,1.5-0.2c2.6,0,3.9,0.9,3.9,3.5
	c0,0.8-0.1,1.7-0.2,2.3h-6.3c0.1,2.1,1.1,2.8,3.1,2.8c1,0,2.3-0.1,3.1-0.2v1.6c-0.6,0.2-2,0.4-3.2,0.4
	C48.8,62.8,47.3,61.3,47.3,57.9z"/>
<path class="st7" d="M57.4,58.1c0-1.5,0.5-3.5,0.9-4.3c0.4,0.5,1.2,1.6,1.4,2.1c-0.2,0.4-0.3,1.2-0.3,2.1c0,2.2,0.8,3.2,3,3.2
	c0.8,0,1.9-0.1,2.5-0.2v1.7c-0.5,0.2-1.8,0.3-2.8,0.3C58.9,62.8,57.4,61.2,57.4,58.1z M60.3,52.6c0.4-0.1,1.4-0.2,1.9-0.2
	c0.8,0,1.9,0.1,2.5,0.2v1.7c-0.7-0.1-1.8-0.2-2.7-0.2c-0.9,0-2.1,0.2-2.6,0.3C59.6,53.9,60,53,60.3,52.6z"/>
<path class="st7" d="M66.8,49.4h2v13.2h-2V49.4z M73.2,57.2c0-2.2-0.3-2.9-2-2.9c-0.7,0-1.7,0.2-2.1,0.4c0.2-0.7,0.7-1.6,1.1-2
	c0.3-0.1,1.1-0.2,1.6-0.2c2.5,0,3.4,1.1,3.4,4.3v5.8h-2V57.2z"/>
<path class="st7" d="M77.8,56.3l-0.7-3.4l1.6-0.4l1.1,3.7c0,0.6-0.1,1.4-0.1,1.9v4.6h-2V56.3z M84.2,57.2c0-2.2-0.4-2.9-2-2.9
	c-0.7,0-1.9,0.3-2.3,0.5c0.2-0.7,0.7-1.6,1.1-2c0.2-0.1,1.2-0.2,1.7-0.2c2.5,0,3.4,1.1,3.4,4.3v5.8h-2V57.2z"/>
<path class="st7" d="M88.3,57.7c0-1.5,0.3-3.2,0.8-4.1c0.5,0.6,1.2,1.6,1.4,2.3c-0.1,0.5-0.2,1.2-0.2,1.7c0,2.9,0.5,3.6,2.5,3.6
	c0.7,0,1.2-0.1,1.7-0.3c0.5-0.3,0.7-1.4,0.7-3.2c0-2.6-0.4-3.5-2.4-3.5c-0.9,0-2,0.2-2.4,0.4c0.2-0.6,0.6-1.5,1-1.9
	c0.3-0.1,1.1-0.2,1.5-0.2c3.4,0,4.3,1.3,4.3,5.2c0,2.6-0.8,4-1.4,4.4c-0.6,0.4-1.7,0.7-3,0.7C89.4,62.8,88.3,61.4,88.3,57.7z"/>
<path class="st7" d="M99.2,49.4h2v13.2h-2V49.4z"/>
<path class="st7" d="M103.4,57.7c0-1.5,0.3-3.2,0.8-4.1c0.5,0.6,1.2,1.6,1.4,2.3c-0.1,0.5-0.2,1.2-0.2,1.7c0,2.9,0.5,3.6,2.5,3.6
	c0.7,0,1.2-0.1,1.7-0.3c0.5-0.3,0.7-1.4,0.7-3.2c0-2.6-0.4-3.5-2.4-3.5c-0.9,0-2,0.2-2.4,0.4c0.2-0.6,0.6-1.5,1-1.9
	c0.3-0.1,1.1-0.2,1.5-0.2c3.4,0,4.3,1.3,4.3,5.2c0,2.6-0.8,4-1.4,4.4c-0.6,0.4-1.7,0.7-3,0.7C104.5,62.8,103.4,61.4,103.4,57.7z"/>
<path class="st7" d="M113.7,64.8c0-0.2,0.1-0.6,0.1-0.8c0.4-0.2,1.1-0.5,1.7-0.5v0.9c0,0.9,0.6,1.4,2.9,1.4c1.9,0,2.9-0.4,2.9-1.7
	c0-0.4-0.1-0.7-0.3-0.9c-0.1-0.1-0.3-0.2-1.2-0.2h-3c-1.1,0-1.8-0.4-1.8-1.3c0-0.3,0-0.7,0.1-0.9c0.3-0.3,1.1-0.7,1.6-0.8v0.8
	c0,0.3,0.1,0.5,0.5,0.5h2.5c1.1,0,2.3,0.1,2.7,0.4c0.4,0.3,0.7,1.1,0.7,2.4c0,2-1.1,3.4-4.8,3.4C114.6,67.2,113.7,66.3,113.7,64.8z
	 M113.8,56.2c0-0.8,0.3-2,0.6-2.8c0.2,0.3,1.1,1.5,1.3,2.1c-0.1,0.1-0.1,0.3-0.1,0.4c0,1.6,0.5,2.1,2.1,2.1c0.6,0,1.1-0.1,1.5-0.3
	c0.5-0.2,0.6-1.1,0.6-1.7c0-1.2-0.5-2-2.1-2c-0.8,0-1.5,0.2-2,0.4c0.2-0.6,0.6-1.4,0.9-1.8c0.3-0.1,0.8-0.1,1.2-0.1
	c1.9,0,3,0.5,3.5,1.5c0.1-0.5,0.4-1,0.7-1.2h1.3l0.4,1.7h-2.3c0.2,0.4,0.3,1,0.3,1.6c0,1.4-0.6,2.6-1.2,2.9
	c-0.6,0.3-1.7,0.5-2.7,0.5C115,59.5,113.8,58.4,113.8,56.2z"/>
<path class="st7" d="M129.1,60.9l-2.3-8.2h-2l2.3,7.6C127.6,60.6,128.4,60.9,129.1,60.9z"/>
<g>
	<path class="st7" d="M130.8,63.6l3.1-10.9h-2L129.1,63c-0.1,0.3-0.9,2.6-1.2,3.5h2L130.8,63.6z"/>
</g>
<g>
	<path class="st8" d="M110.2,73.9c-0.4,0-0.6,0.3-0.6,0.6c0,0.1,0,0.2,0.1,0.3c0.1,0.1,0.2,0.1,0.3,0.1c0.4,0,0.6-0.3,0.6-0.6
		c0-0.1,0-0.2-0.1-0.3C110.4,74,110.3,73.9,110.2,73.9z"/>
	<path class="st8" d="M114.3,69.9c-1.3,0-2.6,1.3-2.6,3.2c0,0.6,0.2,1.1,0.5,1.4c0.3,0.3,0.8,0.5,1.3,0.5c0.7,0,1.2-0.3,1.5-0.6
		l0.1-0.1l-0.3-0.4l-0.1-0.1l-0.1,0.1c-0.3,0.2-0.7,0.4-1.1,0.4c-0.4,0-0.7-0.1-0.9-0.3c-0.2-0.2-0.3-0.6-0.3-1.1
		c0-0.7,0.2-1.3,0.6-1.8c0.4-0.5,0.8-0.7,1.3-0.7c0.4,0,0.6,0.1,0.8,0.4l0.1,0.1l0.4-0.4l0.1-0.1l-0.1-0.1
		C115.3,70.2,114.9,69.9,114.3,69.9z"/>
	<path class="st8" d="M118.3,69.9c-1.4,0-2.6,1.4-2.6,3.2c0,0.6,0.2,1.1,0.5,1.4c0.3,0.3,0.7,0.5,1.2,0.5c1.4,0,2.6-1.4,2.6-3.2
		c0-0.6-0.2-1.1-0.5-1.4C119.3,70.1,118.8,69.9,118.3,69.9z M117.5,74.4c-0.3,0-0.6-0.1-0.8-0.3c-0.2-0.2-0.3-0.6-0.3-1.1
		c0-0.7,0.2-1.3,0.6-1.8c0.4-0.5,0.8-0.7,1.3-0.7c0.4,0,0.6,0.1,0.8,0.3c0.2,0.2,0.3,0.6,0.3,1.1c0,0.7-0.2,1.3-0.6,1.8
		C118.4,74.2,117.9,74.4,117.5,74.4z"/>
	<path class="st8" d="M127.3,71.8c0.1-0.3,0.1-0.4,0.1-0.7c0-0.4-0.1-0.7-0.3-0.9c-0.2-0.2-0.5-0.4-0.9-0.4c-0.5,0-1,0.3-1.6,0.8
		c0-0.2-0.1-0.4-0.2-0.5c-0.2-0.2-0.5-0.3-0.9-0.3c-0.4,0-0.9,0.3-1.4,0.7l0.1-0.4l0-0.2h-0.5h-0.1l0,0.1l-1,4.8h0.6h0.1l0.7-3.5
		c0.6-0.6,1.2-0.9,1.4-0.9c0.3,0,0.4,0.1,0.5,0.2c0.1,0.1,0.2,0.3,0.2,0.5c0,0.2,0,0.3-0.1,0.6l0,0l-0.6,3.1h0.6h0.1l0.7-3.5
		c0.6-0.6,1.2-0.9,1.4-0.9c0.3,0,0.4,0.1,0.5,0.2c0.1,0.1,0.2,0.3,0.2,0.5c0,0.2,0,0.3-0.1,0.6l0,0l-0.6,3.1h0.6h0.1L127.3,71.8
		L127.3,71.8C127.3,71.8,127.3,71.8,127.3,71.8L127.3,71.8L127.3,71.8z"/>
	<path class="st8" d="M61.4,68.1c-1.7,0-3.5,1.8-3.5,4.3c0,0.8,0.2,1.5,0.6,1.9c0.4,0.5,1,0.7,1.7,0.7c0.9,0,1.6-0.4,2.1-0.8
		l0.1-0.1l-0.3-0.4l-0.1-0.1l-0.1,0.1c-0.5,0.4-1,0.7-1.6,0.7c-0.6,0-1-0.2-1.3-0.5c-0.3-0.3-0.4-0.9-0.4-1.6c0-1,0.4-1.9,0.9-2.5
		c0.5-0.7,1.2-1.1,1.9-1.1c0.6,0,0.9,0.2,1.2,0.6l0.1,0.1l0.4-0.4l0.1-0.1L63.1,69C62.7,68.5,62.2,68.1,61.4,68.1z"/>
	<path class="st8" d="M68.9,68.3l-0.2,0.8c-0.4-0.5-0.9-0.9-1.7-0.9c-1.9,0-3.6,2-3.6,4.5c0,0.8,0.2,1.4,0.5,1.8
		c0.4,0.4,0.9,0.6,1.5,0.6c0.9,0,1.6-0.4,2.3-1l-0.1,0.7l0,0.2H68h0.1l1.3-6.6H69H68.9z M67.9,73.1c-0.8,0.9-1.6,1.4-2.4,1.4
		c-0.4,0-0.8-0.1-1-0.4c-0.2-0.3-0.4-0.8-0.4-1.4c0-0.9,0.4-1.9,0.9-2.6c0.5-0.7,1.3-1.2,2-1.2c0.6,0,1,0.3,1.5,1.1L67.9,73.1z"/>
	<path class="st8" d="M72.4,68.9h1.8l0.1-0.5l0-0.2h-1.8l0.4-1.8h-0.2h-0.3h-0.1l-0.4,1.8l-0.9,0l-0.1,0l-0.1,0.4l0,0.2h1l-0.9,4.2
		l0,0c0,0.2-0.1,0.4-0.1,0.6c0,0.3,0.1,0.7,0.3,0.9c0.2,0.3,0.6,0.4,1.1,0.4c0.4,0,0.8-0.2,1-0.3l0.1-0.1l-0.2-0.4l-0.1-0.1L73,74.2
		c-0.2,0.1-0.5,0.2-0.7,0.2c-0.3,0-0.5-0.1-0.6-0.2c-0.1-0.1-0.2-0.3-0.2-0.6c0-0.2,0-0.3,0.1-0.5L72.4,68.9z"/>
	<path class="st8" d="M79.6,68.3l-0.2,0.8c-0.4-0.5-0.9-0.9-1.7-0.9c-1.9,0-3.6,2-3.6,4.5c0,0.8,0.2,1.4,0.5,1.8
		c0.4,0.4,0.9,0.6,1.5,0.6c0.9,0,1.6-0.4,2.3-1l-0.1,0.7l0,0.2h0.5h0.1l1.3-6.6h-0.5H79.6z M78.5,73.1c-0.8,0.9-1.6,1.4-2.4,1.4
		c-0.4,0-0.8-0.1-1-0.4c-0.2-0.3-0.4-0.8-0.4-1.4c0-0.9,0.4-1.9,0.9-2.6c0.5-0.7,1.3-1.2,2-1.2c0.6,0,1,0.3,1.5,1.1L78.5,73.1z"/>
	<polygon class="st8" points="81.2,74.1 81.2,74.1 81.2,74.1 	"/>
	<path class="st8" d="M83.4,66.3h-0.2h-0.4h-0.1l-1.6,7.8c0,0.1-0.1,0.3-0.1,0.4c0,0.2,0.1,0.4,0.2,0.5c0.1,0.1,0.3,0.2,0.4,0.2
		c0.2,0,0.3,0,0.4-0.1l0.1,0l-0.1-0.4l0-0.2L82,74.4c-0.1,0.1-0.1,0-0.2,0l0,0l0,0c0-0.1,0-0.1,0-0.2v0L83.4,66.3z"/>
	<path class="st8" d="M87.6,68.1c-1.8,0-3.5,1.9-3.5,4.3c0,0.8,0.2,1.5,0.6,1.9c0.4,0.5,1,0.7,1.6,0.7c1.8,0,3.5-1.9,3.5-4.3
		c0-0.8-0.2-1.5-0.6-1.9C88.8,68.4,88.2,68.1,87.6,68.1z M86.4,74.5c-0.5,0-0.9-0.2-1.2-0.5c-0.3-0.3-0.4-0.9-0.4-1.6
		c0-1,0.4-1.9,0.9-2.5c0.5-0.7,1.2-1.1,1.9-1.1c0.5,0,0.9,0.2,1.2,0.5c0.3,0.3,0.4,0.9,0.4,1.6c0,1-0.4,1.9-0.9,2.5
		C87.7,74.1,87,74.5,86.4,74.5z"/>
	<path class="st8" d="M96.1,68.3l-0.2,0.8c-0.4-0.6-0.9-0.9-1.7-0.9c-1.8,0-3.5,2-3.5,4.4c0,0.8,0.2,1.4,0.5,1.8
		c0.3,0.4,0.9,0.6,1.4,0.6c0.8,0,1.5-0.4,2.2-1l-0.2,1.1l0,0c-0.1,0.7-0.4,1.3-0.7,1.6c-0.4,0.4-0.8,0.6-1.4,0.6
		c-0.8,0-1.4-0.3-1.8-0.8l-0.1-0.1l-0.3,0.4L90.1,77l0.1,0.1c0.5,0.5,1.2,0.9,2.2,0.9c1.5,0,2.5-1,2.8-2.6l0,0l1.4-7.2h-0.5H96.1z
		 M95.1,73.1c-0.7,0.8-1.7,1.3-2.3,1.3c-0.4,0-0.8-0.1-1-0.4c-0.2-0.3-0.4-0.8-0.4-1.4c0-0.9,0.4-1.9,0.9-2.6
		c0.5-0.7,1.3-1.2,1.9-1.2c0.6,0,1,0.3,1.5,1.1L95.1,73.1z"/>
	<path class="st8" d="M102.9,68.3l-1,4.8c-1,1-1.8,1.3-2.3,1.3c-0.4,0-0.7-0.1-0.8-0.3c-0.2-0.2-0.2-0.4-0.2-0.8
		c0-0.3,0-0.4,0.1-0.8l0,0l0.9-4.2H99h-0.1L98,72.5l0,0c-0.1,0.4-0.1,0.6-0.1,0.9c0,0.5,0.1,0.9,0.4,1.2c0.3,0.3,0.7,0.5,1.3,0.5
		c0.8,0,1.4-0.5,2.2-1.1l-0.1,0.7l0,0.2h0.5h0.1l1.3-6.6H103H102.9z"/>
	<path class="st8" d="M108.7,73.8l-0.1,0.1c-0.5,0.3-1,0.6-1.6,0.6c-0.5,0-1-0.2-1.4-0.5c-0.3-0.3-0.6-0.8-0.6-1.6
		c0-0.2,0-0.5,0.1-0.7h4.5l0-0.1c0.1-0.3,0.2-0.7,0.2-1.1c0-0.7-0.1-1.3-0.5-1.7c-0.3-0.4-0.9-0.7-1.6-0.7c-1.7,0-3.4,1.7-3.4,4.2
		c0,0.9,0.2,1.6,0.7,2c0.4,0.5,1.1,0.7,1.8,0.7c0.7,0,1.4-0.3,1.9-0.7l0.1-0.1l-0.3-0.4L108.7,73.8z M107.8,68.8
		c0.5,0,0.9,0.2,1.1,0.5c0.2,0.3,0.3,0.7,0.3,1.2c0,0.2,0,0.4-0.1,0.7h-3.9C105.7,69.7,106.7,68.8,107.8,68.8z"/>
</g>
</svg>
